.
 
http://www.scenetime.com    -  Hottest private tracker on the net. !!!

New release on http://www.scenetime.com

        Seed back for speed


...................................NFO:.................................................Seeking Justice (2011)

After his wife is assaulted, a husband enlists the services of a vigilante group to help him settle the score. 

Action | Drama | Thriller 
http://www.imdb.com/title/tt1214962/

Video..........:Golodniy.krolik.atakujet.2011.L1.TS
Audio..........:DTRG many thanks and ......yes,now it's sync


General
Complete name                    : Seeking.Justice.2011.CAM.READNFO.XviD-SCR0N
Format                           : AVI
Format/Info                      : Audio Video Interleave
File size                        : 1.15 GiB
Duration                         : 1h 39mn
Overall bit rate                 : 1 657 Kbps


Video
ID                               : 0
Format                           : MPEG-4 Visual
Format profile                   : Advanced Simple@L5
Format settings, BVOP            : 1
Format settings, QPel            : No
Format settings, GMC             : No warppoints
Format settings, Matrix          : Default (MPEG)
Codec ID                         : XVID
Codec ID/Hint                    : XviD
Duration                         : 1h 39mn
Bit rate                         : 1 424 Kbps
Width                            : 720 pixels
Height                           : 288 pixels
Display aspect ratio             : 2.500
Frame rate                       : 25.000 fps
Color space                      : YUV
Chroma subsampling               : 4:2:0
Bit depth                        : 8 bits
Scan type                        : Progressive
Compression mode                 : Lossy
Bits/(Pixel*Frame)               : 0.275
Stream size                      : 1 009 MiB (86%)
Writing library                  : XviD 1.1.2 (UTC 2006-11-01)

Audio
ID                               : 1
Format                           : MPEG Audio
Format version                   : Version 1
Format profile                   : Layer 3
Mode                             : Joint stereo
Codec ID                         : 55
Codec ID/Hint                    : MP3
Duration                         : 1h 39mn
Bit rate mode                    : Constant
Bit rate                         : 224 Kbps
Channel(s)                       : 2 channels
Sampling rate                    : 44.1 KHz
Compression mode                 : Lossy
Stream size                      : 159 MiB (14%)
Alignment                        : Aligned on interleaves
Interleave, duration             : 40 ms (1.00 video frame)
Interleave, preload duration     : 522 ms

[img]http://img18.imageshack.us/img18/4374/sj3w.jpg[/img]
[img]http://img109.imageshack.us/img109/1788/sj1d.jpg[/img]
[img]http://img23.imageshack.us/img23/6586/sj2rs.jpg[/img]
[img]http://img189.imageshack.us/img189/6964/76609331.jpg[/img]
[img]http://img715.imageshack.us/img715/8749/sj4i.jpg[/img]
[img]http://img853.imageshack.us/img853/2811/screensrt.jpg[/img]